FILE "Surgical Strike (1996-01)(Sega)(BR)(en).BIN" BINARY
  TRACK 01 MODE1/2352
    INDEX 01 00:00:00
  TRACK 02 AUDIO
    PREGAP 00:02:00
    INDEX 01 41:25:62
  TRACK 03 AUDIO
    INDEX 00 45:28:59
    INDEX 01 45:30:59
